<mxfile host="www.draw.io" modified="2020-03-10T12:43:16.397Z" agent="Mozilla/5.0 (Windows NT 10.0; Win64; x64) AppleWebKit/537.36 (KHTML, like Gecko) Chrome/80.0.3987.122 Safari/537.36" etag="zklnZY7okZQhDtn702Pe" version="12.8.2" type="github">
  <diagram id="0hsvv9HPZ1_gWiHh1fmn" name="Page-1">
    <mxGraphModel dx="1102" dy="582" grid="1" gridSize="10" guides="1" tooltips="1" connect="1" arrows="1" fold="1" page="1" pageScale="1" pageWidth="827" pageHeight="1169" math="0" shadow="0">
      <root>
        <mxCell id="0" />
        <mxCell id="1" parent="0" />
        <mxCell id="En5beBuz7J6486Ftqot6-1" value="" style="rounded=0;whiteSpace=wrap;html=1;" vertex="1" parent="1">
          <mxGeometry x="290" y="50" width="270" height="140" as="geometry" />
        </mxCell>
        <mxCell id="En5beBuz7J6486Ftqot6-4" value="host1" style="text;html=1;strokeColor=none;fillColor=none;align=center;verticalAlign=middle;whiteSpace=wrap;rounded=0;" vertex="1" parent="1">
          <mxGeometry x="520" y="170" width="40" height="20" as="geometry" />
        </mxCell>
        <mxCell id="En5beBuz7J6486Ftqot6-7" value="" style="rounded=0;whiteSpace=wrap;html=1;" vertex="1" parent="1">
          <mxGeometry x="150" y="260" width="255" height="250" as="geometry" />
        </mxCell>
        <mxCell id="En5beBuz7J6486Ftqot6-10" value="host2" style="text;html=1;strokeColor=none;fillColor=none;align=center;verticalAlign=middle;whiteSpace=wrap;rounded=0;" vertex="1" parent="1">
          <mxGeometry x="360" y="489" width="40" height="20" as="geometry" />
        </mxCell>
        <mxCell id="En5beBuz7J6486Ftqot6-13" value="ovs-docker1" style="rounded=1;whiteSpace=wrap;html=1;" vertex="1" parent="1">
          <mxGeometry x="180" y="425" width="80" height="50" as="geometry" />
        </mxCell>
        <mxCell id="En5beBuz7J6486Ftqot6-15" value="veth0" style="rounded=0;whiteSpace=wrap;html=1;" vertex="1" parent="1">
          <mxGeometry x="200" y="405" width="40" height="20" as="geometry" />
        </mxCell>
        <mxCell id="En5beBuz7J6486Ftqot6-17" value="" style="rounded=1;whiteSpace=wrap;html=1;" vertex="1" parent="1">
          <mxGeometry x="205" y="280" width="150" height="60" as="geometry" />
        </mxCell>
        <mxCell id="En5beBuz7J6486Ftqot6-18" value="br-int" style="text;html=1;strokeColor=none;fillColor=none;align=center;verticalAlign=middle;whiteSpace=wrap;rounded=0;" vertex="1" parent="1">
          <mxGeometry x="310" y="280" width="40" height="20" as="geometry" />
        </mxCell>
        <mxCell id="En5beBuz7J6486Ftqot6-28" style="rounded=0;orthogonalLoop=1;jettySize=auto;html=1;entryX=0.5;entryY=0;entryDx=0;entryDy=0;exitX=0.5;exitY=1;exitDx=0;exitDy=0;endArrow=none;endFill=0;" edge="1" parent="1" source="En5beBuz7J6486Ftqot6-19" target="En5beBuz7J6486Ftqot6-15">
          <mxGeometry relative="1" as="geometry" />
        </mxCell>
        <mxCell id="En5beBuz7J6486Ftqot6-19" value="br-p1" style="rounded=0;whiteSpace=wrap;html=1;" vertex="1" parent="1">
          <mxGeometry x="230" y="340" width="40" height="20" as="geometry" />
        </mxCell>
        <mxCell id="En5beBuz7J6486Ftqot6-21" value="" style="rounded=1;whiteSpace=wrap;html=1;" vertex="1" parent="1">
          <mxGeometry x="350" y="90" width="150" height="60" as="geometry" />
        </mxCell>
        <mxCell id="En5beBuz7J6486Ftqot6-22" value="logical switch" style="text;html=1;strokeColor=none;fillColor=none;align=center;verticalAlign=middle;whiteSpace=wrap;rounded=0;" vertex="1" parent="1">
          <mxGeometry x="415" y="90" width="80" height="20" as="geometry" />
        </mxCell>
        <mxCell id="En5beBuz7J6486Ftqot6-23" value="ls-p1" style="rounded=0;whiteSpace=wrap;html=1;" vertex="1" parent="1">
          <mxGeometry x="375" y="150" width="40" height="20" as="geometry" />
        </mxCell>
        <mxCell id="En5beBuz7J6486Ftqot6-24" value="ls-p2" style="rounded=0;whiteSpace=wrap;html=1;" vertex="1" parent="1">
          <mxGeometry x="435" y="150" width="40" height="20" as="geometry" />
        </mxCell>
        <mxCell id="En5beBuz7J6486Ftqot6-25" value="ovs-docker2" style="rounded=1;whiteSpace=wrap;html=1;" vertex="1" parent="1">
          <mxGeometry x="295" y="425" width="80" height="50" as="geometry" />
        </mxCell>
        <mxCell id="En5beBuz7J6486Ftqot6-26" value="veth0" style="rounded=0;whiteSpace=wrap;html=1;" vertex="1" parent="1">
          <mxGeometry x="315" y="405" width="40" height="20" as="geometry" />
        </mxCell>
        <mxCell id="En5beBuz7J6486Ftqot6-27" value="" style="endArrow=none;dashed=1;html=1;entryX=0.5;entryY=1;entryDx=0;entryDy=0;exitX=0.5;exitY=0;exitDx=0;exitDy=0;" edge="1" parent="1" source="En5beBuz7J6486Ftqot6-19" target="En5beBuz7J6486Ftqot6-23">
          <mxGeometry width="50" height="50" relative="1" as="geometry">
            <mxPoint x="390" y="330" as="sourcePoint" />
            <mxPoint x="440" y="280" as="targetPoint" />
          </mxGeometry>
        </mxCell>
        <mxCell id="En5beBuz7J6486Ftqot6-30" value="" style="rounded=0;whiteSpace=wrap;html=1;" vertex="1" parent="1">
          <mxGeometry x="445" y="260" width="255" height="250" as="geometry" />
        </mxCell>
        <mxCell id="En5beBuz7J6486Ftqot6-31" value="host2" style="text;html=1;strokeColor=none;fillColor=none;align=center;verticalAlign=middle;whiteSpace=wrap;rounded=0;" vertex="1" parent="1">
          <mxGeometry x="655" y="489" width="40" height="20" as="geometry" />
        </mxCell>
        <mxCell id="En5beBuz7J6486Ftqot6-32" value="ovs-docker1" style="rounded=1;whiteSpace=wrap;html=1;" vertex="1" parent="1">
          <mxGeometry x="475" y="425" width="80" height="50" as="geometry" />
        </mxCell>
        <mxCell id="En5beBuz7J6486Ftqot6-33" value="veth0" style="rounded=0;whiteSpace=wrap;html=1;" vertex="1" parent="1">
          <mxGeometry x="495" y="405" width="40" height="20" as="geometry" />
        </mxCell>
        <mxCell id="En5beBuz7J6486Ftqot6-34" value="" style="rounded=1;whiteSpace=wrap;html=1;" vertex="1" parent="1">
          <mxGeometry x="500" y="280" width="150" height="60" as="geometry" />
        </mxCell>
        <mxCell id="En5beBuz7J6486Ftqot6-35" value="br-int" style="text;html=1;strokeColor=none;fillColor=none;align=center;verticalAlign=middle;whiteSpace=wrap;rounded=0;" vertex="1" parent="1">
          <mxGeometry x="605" y="280" width="40" height="20" as="geometry" />
        </mxCell>
        <mxCell id="En5beBuz7J6486Ftqot6-36" style="rounded=0;orthogonalLoop=1;jettySize=auto;html=1;entryX=0.5;entryY=0;entryDx=0;entryDy=0;exitX=0.5;exitY=1;exitDx=0;exitDy=0;" edge="1" parent="1" source="En5beBuz7J6486Ftqot6-38" target="En5beBuz7J6486Ftqot6-33">
          <mxGeometry relative="1" as="geometry" />
        </mxCell>
        <mxCell id="En5beBuz7J6486Ftqot6-37" style="edgeStyle=none;rounded=0;orthogonalLoop=1;jettySize=auto;html=1;entryX=0.5;entryY=0;entryDx=0;entryDy=0;exitX=0.5;exitY=1;exitDx=0;exitDy=0;" edge="1" parent="1" source="En5beBuz7J6486Ftqot6-44" target="En5beBuz7J6486Ftqot6-40">
          <mxGeometry relative="1" as="geometry" />
        </mxCell>
        <mxCell id="En5beBuz7J6486Ftqot6-38" value="br-p1" style="rounded=0;whiteSpace=wrap;html=1;" vertex="1" parent="1">
          <mxGeometry x="530" y="340" width="40" height="20" as="geometry" />
        </mxCell>
        <mxCell id="En5beBuz7J6486Ftqot6-39" value="ovs-docker2" style="rounded=1;whiteSpace=wrap;html=1;" vertex="1" parent="1">
          <mxGeometry x="590" y="425" width="80" height="50" as="geometry" />
        </mxCell>
        <mxCell id="En5beBuz7J6486Ftqot6-40" value="veth0" style="rounded=0;whiteSpace=wrap;html=1;" vertex="1" parent="1">
          <mxGeometry x="610" y="405" width="40" height="20" as="geometry" />
        </mxCell>
        <mxCell id="En5beBuz7J6486Ftqot6-41" value="" style="endArrow=none;dashed=1;html=1;entryX=0.5;entryY=1;entryDx=0;entryDy=0;exitX=0.5;exitY=0;exitDx=0;exitDy=0;" edge="1" parent="1" source="En5beBuz7J6486Ftqot6-38" target="En5beBuz7J6486Ftqot6-24">
          <mxGeometry width="50" height="50" relative="1" as="geometry">
            <mxPoint x="290" y="350" as="sourcePoint" />
            <mxPoint x="405" y="180" as="targetPoint" />
          </mxGeometry>
        </mxCell>
        <mxCell id="En5beBuz7J6486Ftqot6-43" style="edgeStyle=none;rounded=0;orthogonalLoop=1;jettySize=auto;html=1;entryX=0.5;entryY=0;entryDx=0;entryDy=0;exitX=0.5;exitY=1;exitDx=0;exitDy=0;endArrow=none;endFill=0;" edge="1" parent="1" source="En5beBuz7J6486Ftqot6-42" target="En5beBuz7J6486Ftqot6-26">
          <mxGeometry relative="1" as="geometry" />
        </mxCell>
        <mxCell id="En5beBuz7J6486Ftqot6-42" value="br-p2" style="rounded=0;whiteSpace=wrap;html=1;" vertex="1" parent="1">
          <mxGeometry x="290" y="340" width="40" height="20" as="geometry" />
        </mxCell>
        <mxCell id="En5beBuz7J6486Ftqot6-44" value="br-p2" style="rounded=0;whiteSpace=wrap;html=1;" vertex="1" parent="1">
          <mxGeometry x="590" y="340" width="40" height="20" as="geometry" />
        </mxCell>
        <mxCell id="En5beBuz7J6486Ftqot6-45" value="" style="endArrow=none;dashed=1;html=1;entryX=0.5;entryY=1;entryDx=0;entryDy=0;exitX=0.5;exitY=0;exitDx=0;exitDy=0;" edge="1" parent="1" source="En5beBuz7J6486Ftqot6-42" target="En5beBuz7J6486Ftqot6-23">
          <mxGeometry width="50" height="50" relative="1" as="geometry">
            <mxPoint x="260" y="350" as="sourcePoint" />
            <mxPoint x="405" y="180" as="targetPoint" />
          </mxGeometry>
        </mxCell>
        <mxCell id="En5beBuz7J6486Ftqot6-46" value="" style="endArrow=none;dashed=1;html=1;entryX=0.5;entryY=1;entryDx=0;entryDy=0;exitX=0.5;exitY=0;exitDx=0;exitDy=0;" edge="1" parent="1" source="En5beBuz7J6486Ftqot6-44" target="En5beBuz7J6486Ftqot6-24">
          <mxGeometry width="50" height="50" relative="1" as="geometry">
            <mxPoint x="560" y="350" as="sourcePoint" />
            <mxPoint x="465" y="180" as="targetPoint" />
          </mxGeometry>
        </mxCell>
      </root>
    </mxGraphModel>
  </diagram>
</mxfile>
